<svg width="85" height="64" viewBox="0 0 85 64" fill="none" xmlns="http://www.w3.org/2000/svg">
<circle cx="40.5" cy="35.5" r="27" stroke="#ED9C00" stroke-width="3"/>
<path d="M21.2168 45.8838C20.8073 46.1826 20.3369 46.332 19.8057 46.332C19.2855 46.332 18.8649 46.1992 18.5439 45.9336C18.234 45.6569 18.0791 45.3415 18.0791 44.9873C18.0791 44.6331 18.1344 44.373 18.2451 44.207C18.5661 44.3952 19.0697 44.4893 19.7559 44.4893C20.4531 44.4893 21.0286 44.0189 21.4824 43.0781V35.1094C21.4824 34.5892 21.3717 34.2018 21.1504 33.9473C20.8184 33.5488 20.2539 33.1559 19.457 32.7686C20.265 32.3812 20.7741 32.0602 20.9844 31.8057C21.3164 31.3851 21.4824 30.9147 21.4824 30.3945V23.3887C21.1061 22.5365 20.4255 22.1104 19.4404 22.1104C19.0641 22.1104 18.7542 22.2044 18.5107 22.3926C18.389 22.2266 18.3281 22.0329 18.3281 21.8115C18.3281 21.5902 18.3835 21.3854 18.4941 21.1973C18.6048 21.0091 18.7487 20.8431 18.9258 20.6992C19.3132 20.4115 19.8333 20.2676 20.4863 20.2676C21.1504 20.2676 21.7148 20.4502 22.1797 20.8154C22.4896 20.4502 22.9157 20.2676 23.458 20.2676C24.0003 20.2676 24.4375 20.4557 24.7695 20.832C25.0905 20.4557 25.417 20.2676 25.749 20.2676C26.0921 20.2676 26.3467 20.3008 26.5127 20.3672C26.6898 20.4336 26.8392 20.5221 26.9609 20.6328C27.138 20.7767 27.3372 21.0589 27.5586 21.4795L37.8516 40.0234V34.96C37.8516 34.473 37.7464 34.1133 37.5361 33.8809C37.2152 33.5378 36.6452 33.167 35.8262 32.7686C36.5898 32.3923 37.0824 32.0879 37.3037 31.8555C37.6689 31.4681 37.8516 31.0365 37.8516 30.5605V23.6045C37.597 23.1396 37.2816 22.7744 36.9053 22.5088C36.54 22.2432 36.1195 22.1104 35.6436 22.1104C35.1787 22.1104 34.7858 22.2044 34.4648 22.3926C34.3431 22.1934 34.2822 21.9222 34.2822 21.5791C34.2822 21.2249 34.4538 20.9206 34.7969 20.666C35.14 20.4004 35.5882 20.2676 36.1416 20.2676C36.695 20.2676 37.1875 20.4115 37.6191 20.6992C38.0065 20.4115 38.4492 20.2676 38.9473 20.2676C39.4564 20.2676 39.9046 20.417 40.292 20.7158C40.7236 20.417 41.1995 20.2676 41.7197 20.2676C42.2399 20.2676 42.6549 20.4059 42.9648 20.6826C43.2858 20.9482 43.4463 21.2581 43.4463 21.6123C43.4463 21.9665 43.391 22.2266 43.2803 22.3926C42.9593 22.2044 42.4447 22.1104 41.7363 22.1104C41.028 22.1104 40.4635 22.5863 40.043 23.5381V30.5605C40.043 31.0365 40.1426 31.3851 40.3418 31.6064C40.6738 31.9717 41.2493 32.359 42.0684 32.7686C41.1719 33.2555 40.6351 33.5931 40.458 33.7812C40.1813 34.0801 40.043 34.473 40.043 34.96L40.3418 43.3936C40.7402 44.124 41.3656 44.4893 42.2178 44.4893C42.5941 44.4893 42.904 44.3952 43.1475 44.207C43.2692 44.373 43.3301 44.5667 43.3301 44.7881C43.3301 45.0094 43.2747 45.2142 43.1641 45.4023C43.0534 45.5905 42.9095 45.7565 42.7324 45.9004C42.3451 46.1882 41.8747 46.332 41.3213 46.332C40.7679 46.332 40.2699 46.2214 39.8271 46C38.9528 46.498 38.0618 46.4593 37.1543 45.8838C36.8001 46.1826 36.4626 46.332 36.1416 46.332C35.8206 46.332 35.5827 46.3044 35.4277 46.249C35.2728 46.1937 35.1289 46.0941 34.9961 45.9502C34.7858 45.7399 34.4593 45.2142 34.0166 44.373L23.8066 26.7754V43.0781C24.2604 44.0189 24.8359 44.4893 25.5332 44.4893C26.2305 44.4893 26.7396 44.3952 27.0605 44.207C27.1823 44.4062 27.2432 44.6829 27.2432 45.0371C27.2432 45.3802 27.0716 45.6846 26.7285 45.9502C26.3854 46.2048 25.9427 46.332 25.4004 46.332C24.8581 46.332 24.36 46.1937 23.9062 45.917C23.5078 46.1937 23.0485 46.332 22.5283 46.332C22.0192 46.332 21.582 46.1826 21.2168 45.8838ZM34.1992 41.6006C34.2767 41.501 34.3154 41.346 34.3154 41.1357C34.3154 40.9144 34.2822 40.6709 34.2158 40.4053C34.1605 40.1286 34.0775 39.8353 33.9668 39.5254C33.7344 38.9056 33.43 38.2415 33.0537 37.5332L26.0146 25.248C25.9372 25.3698 25.8984 25.5911 25.8984 25.9121C25.8984 26.5983 26.3688 27.7992 27.3096 29.5146L34.1992 41.6006Z" fill="white"/>
<path d="M46.9106 49.8228C46.3735 50.1558 45.7666 50.3223 45.0898 50.3223C44.4131 50.3223 43.833 50.1504 43.3496 49.8066C42.8018 50.1504 42.2969 50.3223 41.835 50.3223C41.373 50.3223 40.9917 50.2793 40.6909 50.1934C40.3901 50.1182 40.127 50.0107 39.9014 49.8711C39.4395 49.5918 39.2085 49.2427 39.2085 48.8237C39.2085 48.6089 39.2676 48.4209 39.3857 48.2598C39.6221 48.4424 39.9229 48.5337 40.2881 48.5337C41.2441 48.5337 41.9048 48.1255 42.27 47.3091V39.4297C42.27 38.5918 41.8511 37.958 41.0132 37.5283L40.3042 37.1577C41.2603 36.7173 41.8564 36.2393 42.0928 35.7236C42.2109 35.4873 42.27 35.1973 42.27 34.8535V28.0537C41.9048 27.2266 41.2441 26.813 40.2881 26.813C39.9229 26.813 39.6221 26.9043 39.3857 27.0869C39.2676 26.9258 39.2085 26.7432 39.2085 26.5391C39.2085 26.3242 39.2676 26.1255 39.3857 25.9429C39.5146 25.7603 39.6865 25.6045 39.9014 25.4756C40.3955 25.1748 40.9541 25.0244 41.5771 25.0244C42.2109 25.0244 42.8018 25.1963 43.3496 25.54C43.833 25.1963 44.4131 25.0244 45.0898 25.0244C45.7773 25.0244 46.3843 25.1963 46.9106 25.54C47.4155 25.1963 47.9795 25.0244 48.6025 25.0244C49.5156 25.0244 50.1709 25.3306 50.5684 25.9429C50.6865 26.1362 50.7456 26.3403 50.7456 26.5552C50.7456 26.77 50.6812 26.9473 50.5522 27.0869C50.3159 26.9043 50.0205 26.813 49.666 26.813C48.8389 26.813 48.2856 27.2158 48.0063 28.0215V36.3037L55.4185 27.522C55.4185 27.0386 55.1499 26.7969 54.6128 26.7969C54.0757 26.7969 53.6299 26.8989 53.2754 27.103C53.1572 26.9097 53.0981 26.6626 53.0981 26.3618C53.0981 26.0503 53.2593 25.7495 53.5815 25.4595C53.9038 25.1694 54.3496 25.0244 54.9189 25.0244C55.499 25.0244 55.9771 25.1641 56.353 25.4434C56.729 25.1641 57.1479 25.0244 57.6099 25.0244C58.0718 25.0244 58.4854 25.1694 58.8506 25.4595C59.2158 25.1694 59.5864 25.0244 59.9624 25.0244C60.3384 25.0244 60.6338 25.062 60.8486 25.1372C61.0742 25.2017 61.2676 25.293 61.4287 25.4111C61.8047 25.6904 61.9927 26.002 61.9927 26.3457C61.9927 26.6895 61.939 26.9419 61.8315 27.103C61.606 27.0278 61.3481 26.9902 61.0581 26.9902C60.4673 26.9902 60.0322 27.0493 59.7529 27.1675C59.4844 27.2856 59.2212 27.4199 58.9634 27.5703C58.7163 27.7207 58.4639 27.8926 58.2061 28.0859L57.4648 28.6338C57.2178 28.8271 57.019 29.0044 56.8687 29.1655L53.1787 33.5L59.9624 45.8428C60.8003 47.3467 61.4717 48.2061 61.9766 48.4209C62.1592 48.4961 62.3955 48.5337 62.6855 48.5337C62.9756 48.5337 63.2388 48.4424 63.4751 48.2598C63.5933 48.4209 63.6523 48.6089 63.6523 48.8237C63.6523 49.0278 63.5933 49.2212 63.4751 49.4038C63.3569 49.5864 63.2012 49.7422 63.0078 49.8711C62.5674 50.1719 62.0088 50.3223 61.332 50.3223C60.6553 50.3223 60.043 50.1504 59.4951 49.8066C58.9473 50.1504 58.3242 50.3223 57.626 50.3223C56.9277 50.3223 56.3047 50.1504 55.7568 49.8066C55.209 50.1504 54.6074 50.3223 53.9521 50.3223C53.3076 50.3223 52.8027 50.1772 52.4375 49.8872C52.083 49.5864 51.9058 49.2319 51.9058 48.8237C51.9058 48.6089 51.9648 48.4209 52.083 48.2598C52.3193 48.4424 52.6201 48.5337 52.9854 48.5337C53.6621 48.5337 54.1616 48.2705 54.4839 47.7441L49.5049 37.7861L48.0063 39.5425V47.3252C48.2856 48.1309 48.8389 48.5337 49.666 48.5337C50.0205 48.5337 50.3159 48.4424 50.5522 48.2598C50.6812 48.3994 50.7456 48.5767 50.7456 48.7915C50.7456 49.0063 50.6812 49.2104 50.5522 49.4038C50.4341 49.5972 50.2783 49.7637 50.085 49.9033C49.6768 50.1826 49.1826 50.3223 48.6025 50.3223C47.9902 50.3223 47.4263 50.1558 46.9106 49.8228ZM43.7847 45.73C44.3218 45.5259 44.6172 44.8223 44.6709 43.6191C44.7354 42.416 44.7676 40.751 44.7676 38.624C44.7676 36.4971 44.7622 35.0845 44.7515 34.3862C44.7515 33.6772 44.7461 33.1079 44.7354 32.6782C44.7031 31.4106 44.5796 30.6479 44.3647 30.3901C44.1606 30.1216 43.9673 29.9443 43.7847 29.8584C43.7847 33.5967 43.7202 35.7236 43.5913 36.2393C43.4409 36.6689 43.0757 36.9751 42.4956 37.1577C43.1401 37.3833 43.5054 37.6572 43.5913 37.9795C43.7202 38.4951 43.7847 40.3804 43.7847 43.6353V45.73ZM55.1445 45.73C55.2734 45.5581 55.3379 45.3057 55.3379 44.9727C55.3379 44.2422 55.0854 43.4097 54.5806 42.4751L51.4385 36.0298L50.7134 36.7871L55.1445 45.73Z" fill="white"/>
<path d="M74 33.5C74 24.6152 70.4706 16.0944 64.1881 9.81192C57.9056 3.52946 49.3848 6.7078e-07 40.5 0C31.6153 -6.7078e-07 23.0944 3.52945 16.812 9.81192C10.5295 16.0944 7.00003 24.6152 7.00003 33.5C9.07968 33.5 10.741 31.8073 11.0036 29.7443C11.8312 23.2434 14.791 17.1582 19.4746 12.4746C25.0509 6.89827 32.614 3.76555 40.5 3.76555C48.3861 3.76555 55.9492 6.89828 61.5255 12.4746C66.2091 17.1582 69.1689 23.2434 69.9965 29.7443C70.2591 31.8073 71.9204 33.5 74 33.5Z" fill="white"/>
<path d="M16.812 9.81192C10.5295 16.0944 7.00003 24.6152 7.00003 33.5C-2.49996 33.5 -2.49999 9.81192 16.812 9.81192Z" fill="white"/>
<path d="M74 33.5C74 24.6152 70.4706 16.0944 64.1881 9.81192C89 9.81192 89 33.5 74 33.5Z" fill="white"/>
</svg>
